<?xml version="1.0" encoding="utf-8" ?><svg xmlns="http://www.w3.org/2000/svg" xmlns:xlink="http://www.w3.org/1999/xlink" width="2909" height="1662" viewBox="0 0 2909 1662"><path fill="#FEFEFE" transform="scale(2.16435 2.16435)" d="M828.097 407.882L828.188 407.575C830.903 398.071 830.634 391.178 832.598 382.003C839.289 350.83 847.542 320.053 861.98 291.441C866.068 283.339 873.295 267.337 884.49 267.667C886.243 267.719 888.479 272.42 889.467 274.06C881.138 285.222 870.561 309.35 865.445 322.444C869.696 321.793 873.098 321.702 877.374 321.534C877.304 314.369 879.086 306.128 888.894 308.511C893.895 309.727 895.825 313.948 898.06 318.144C915.959 321.038 937.342 315.698 955.54 315.817C960.724 315.851 968.826 316.265 968.315 323.261C961.13 337.209 908.822 330.384 896.148 336.558C892.512 338.329 892.052 355.16 891.768 360.33C906.318 360.518 921.065 358.651 936.033 357.043C940.255 356.589 961.595 353.154 955.426 367.168C953.294 372.01 940.737 371.58 934.798 372.532C923.149 374.399 902.434 371.478 892.287 377.873C888.592 381.612 890.188 398.122 890.781 403.753C900.054 413.123 925.846 427.457 939.006 430.782C945.53 417.025 942.635 407.033 950.117 395.077C950.756 394.055 955.548 390.244 956.801 389.246C957.408 387.139 957.69 384.461 958.747 382.558C964.484 372.223 978.748 379.097 987.083 373.541C997.939 366.306 1016 303.957 1019.04 288.984C1020.13 287.84 1022.4 285.707 1023.8 285.031C1038.33 278.618 1040.97 298.111 1043.83 306.889C1049.1 323.084 1051.34 348.797 1059.61 362.946C1062.67 362.657 1066.43 361.916 1069.52 361.396C1072.19 362.762 1074.91 364.08 1077.83 364.813L1078.3 366.187L1080.08 368.09C1080.91 367.283 1083.11 365.162 1083.32 364.082C1085.24 353.774 1085.12 342.854 1085.46 332.371C1085.6 328.025 1085.82 322.822 1080.28 322.793C1075.46 325.552 1076.7 333.191 1073.93 337.689C1072.88 336.682 1072.97 333.393 1072.94 331.77C1072.9 329.845 1072.88 327.92 1072.87 325.994L1072.04 325.213C1069.44 327.617 1070.59 329.5 1068.61 329.824C1067.2 326.058 1065.29 322.129 1064 318.528C1059.07 304.829 1077.12 307.485 1084.14 305.441C1094.85 302.325 1094.37 298.287 1104.43 306.311C1122.79 308.102 1142.65 309.897 1160.47 313.004C1173.26 315.235 1208.69 321.226 1188.95 339.489C1178.75 348.922 1119.14 366.95 1115.4 373.764C1116.15 377.598 1138.41 388.043 1142.78 390.315C1159.16 398.838 1175.61 407.228 1192.13 415.485C1197.65 418.238 1207.12 421.615 1211.75 424.82C1224.16 433.416 1215.49 439.62 1205.68 442.132C1185.93 429.415 1165.06 417.975 1144.12 407.352C1131.03 400.713 1115.54 392.815 1101.9 387.417C1101.37 393.239 1101.48 397.58 1101.2 404.136C1100.8 413.388 1104.79 436.644 1097.74 443.303C1093.88 446.953 1087.08 439.979 1089 452.726C1087.57 454.501 1085.8 456.826 1084.31 458.47C1084.02 461.848 1083.66 469.387 1082.45 472.132C1081.15 470.006 1081.24 461.47 1080.72 457.683C1079.77 462.654 1079.07 466.149 1078.75 471.21C1078.11 480.728 1079.44 493.856 1078.04 502.98C1074.49 489.729 1078.89 469.892 1076.26 462.206C1067.67 437.084 1056.85 404.201 1047.61 379.946C1036.88 380.85 1005.81 382.155 999.949 390.979C992.005 402.933 987.584 421.563 981.388 434.996C977.643 443.116 964.746 461.22 960.091 443.131C965.862 426.071 977.365 408.915 980.807 392.393C974.93 392.874 971.004 393.587 965.188 394.721C963.508 407.162 959.997 422.215 957.391 434.606C955.35 444.314 952.543 445.394 944.768 450.01C945.128 453.1 945.87 456.45 944.409 459.149L943.553 458.724C942.47 455.991 943.152 452.489 943.461 449.487L940.422 449.763C934.708 454.68 941.115 477.907 937.617 484.291L936.42 484.37C935.355 483.55 933.71 482.284 933.813 480.791C934.55 470.096 934.881 459.594 934.991 448.872C919.175 441.8 891.077 426.636 877.569 415.453C871.551 410.471 873.099 390.062 873.293 381.969C868.101 382.015 849.134 381.992 855.701 370.754C858.821 365.413 868.684 364.274 874.481 363.272C875.251 355.382 875.903 347.481 876.435 339.571C868.192 339.37 867.511 340.104 860.362 335.624C850.955 367.129 841.813 409.943 846.101 442.329C844.62 443.969 843.104 445.777 841.407 447.199C839.591 448.721 837.205 449.592 834.824 449.297C817.84 447.19 803.635 390.626 792.84 376.748C784.926 389.667 780.348 415.707 773.177 430.516C752.495 442.124 754.837 424.146 749.158 409.719C737.929 381.194 731.129 345.421 712.623 320.653C712.603 325.414 713.385 330.297 712.011 334.832L711.395 334.634C710.286 331.442 709.897 317.5 707.919 309.645C702.773 309.826 695.665 309.899 691.669 313.002C689.352 316.419 689.209 322.5 688.761 326.61C685.821 353.637 684.706 381.245 686.513 408.384C687.567 424.225 698.052 429.813 682.22 442.136C679.807 441.18 676.204 439.986 674.43 438.041C665.489 428.241 670.923 335.692 670.715 317.732C662.949 317.951 653.321 320.001 645.584 321.551C641.109 331.742 634.069 328.949 624.789 331.795C624.84 334.95 625.361 338.337 623.217 340.608L622.241 340.167C620.977 337.89 621.372 334.842 621.455 332.158C606.565 331.961 586.265 334.273 571.102 335.63C568.603 343.821 567.816 351.857 567.811 360.368C586.424 360.792 604.544 356.51 623.127 356.477C628.192 356.467 636.93 360.565 632.079 366.354C627.338 372.01 618.201 371.276 610.288 372.288C597.876 373.875 579.551 372.15 567.935 376.889C564.547 379.766 566.291 399.216 567.25 404.387C576.892 413.662 600.905 427.534 614.525 430.357C620.54 418.935 617.835 406.244 624.956 394.864C626.63 389.351 640.831 386.743 639.656 394.352C631.559 446.483 633.722 465.756 578.533 431.582C545.853 411.346 550.987 423.346 549.07 382.434C543.816 381.28 524.355 383.092 531.566 369.459C533.972 364.91 545.149 363.976 550.24 363.227C550.146 358.99 551.671 344.253 552.074 339.257C542.114 339.437 539.346 339.71 534.106 330.646C531.464 330.689 528.701 330.818 526.073 331.113C507.617 333.184 488.275 332.646 470.001 335.751C465.855 344.974 465.727 349.752 465.61 359.617C480.588 360.342 507.849 357.799 523.063 355.461C526.591 356.965 530.707 359.147 532.103 362.94C531.018 371.901 512.708 372.02 505.905 372.549C492.464 373.596 477.844 373.175 464.74 376.417C463.982 387.135 463.456 393.176 464.903 403.828C474.39 413.487 499.417 427.135 512.423 431.179C517.046 422.419 519.726 387.457 533.47 389.242C540.015 390.092 539.486 397.55 538.068 402.972C534.866 415.216 533.569 431.357 528.469 442.982C524.845 446.097 522.411 447.322 518.381 451.112C518.524 455.323 518.414 458.272 518.176 462.431C517.046 458.248 517.146 452.957 513.791 450.009L512.848 450.652C510.264 459.071 512.65 470.262 512.17 479.137C511.977 482.704 512.331 482.827 510.053 484.983L508.94 484.75C506.279 480.693 508.036 456.218 507.993 448.856C498.392 444.374 490.296 437.977 480.625 433.878C477.259 432.498 477.235 439.257 472.671 440.798C463.692 443.828 453.64 433.152 445.279 429.11C419.15 416.48 390.138 396.729 362.633 388.226C358.462 404.013 364.296 420.423 361.714 436.36C360.928 441.215 358.502 444.837 353.242 445.166C343.044 445.803 344.059 435.615 344.121 428.558C344.155 424.998 344.348 420.981 344.422 417.229C344.737 405.638 344.75 394.041 344.461 382.45C338.151 374.074 337.361 372.057 344.562 363.852C344.534 356.968 347.695 328.548 344.186 324.674C342.928 323.285 342.029 323.171 340.293 322.945C332.149 325.681 338.351 334.075 334.761 338.032L333.942 337.61C332.602 333.685 333.911 329.832 332.944 326.179C331.913 327.081 331.155 328.198 330.331 329.294C328.771 329.007 328.513 326.033 327.474 324.398C326.227 322.435 324.977 320.787 323.523 318.985C323.528 315.52 324.181 312.459 320.943 310.578C320.152 310.958 319.817 311.228 319.302 311.963C311.63 322.909 311.749 389.641 313.281 405.863C313.907 412.5 316.262 418.793 317.222 425.355C317.808 429.365 317.588 433.867 315.021 437.196C313.59 439.051 311.54 440.257 309.198 440.503C306.808 440.754 303.616 440.04 301.741 438.403C298.358 435.45 297.947 426.266 297.478 421.916C294.943 398.361 295.558 374.803 296.615 351.177C297.111 340.097 298.575 328.805 297.868 317.735C285.879 318.616 262.099 324.373 250.423 328.574C249.834 331.972 250.112 338.781 248.712 341.226L247.802 341.435C246.549 338.836 246.307 329.68 245.834 329.467C234.933 324.566 234.255 318.759 238.198 302.726C217.222 310.705 182.959 336.727 167.089 352.833C198.585 361.306 238.634 351.038 270.397 360.943C285.582 365.678 285.923 377.842 274.261 387.32C256.341 401.886 236.995 414.398 217.649 426.958C204.017 435.807 192.338 445.253 177.423 452.161C177.382 456.332 178.21 476.975 175.714 478.524C172.355 471.355 178.817 457.783 173.317 452.901C171.384 453.232 171.554 453.708 170.039 455.55C168.207 451.595 167.232 449.908 164.901 446.263C164.724 441.27 160.485 387.774 178.22 398.206C184.074 401.649 181.223 420.979 183.077 430.323C193.459 426.203 258.592 383.328 258.179 375.899C252.017 368.998 176.432 373.145 164.039 369.118C158.337 367.266 152.608 366.144 149.107 360.446C144.816 353.462 150.221 345.528 155.111 340.662C179.912 318.614 208.546 300.997 235.666 281.974C245.058 275.386 252.673 279.952 257.573 288.712C257.151 293.713 254.29 302.337 256.236 306.966C257.003 308.792 269.114 306.254 270.997 305.932C290.282 302.635 383.542 282.852 394.966 288.308C396.26 288.927 396.248 289.586 396.671 290.819C395.556 304.958 372.118 304.208 361.569 305.401C368.754 306.792 377.437 307.308 384.824 308.206C407.984 311.02 428.156 312.77 450.339 320.385C450.533 319.189 450.748 317.997 450.983 316.809C452.093 311.248 455.585 306.1 462.18 307.942C467.491 309.425 469.246 313.724 471.638 318.208C495.357 318.835 514.46 315.895 536.703 315.742C540.153 317.573 550.732 326.947 552.959 318.181C557.859 298.896 566.613 308.04 574.705 318.283C584.056 319.352 599.473 317.968 609.506 317.656C610.686 315.41 612.067 313.113 613.345 310.907C636.161 307.157 756.615 283.536 768.135 288.455C769.959 289.234 770.888 290.225 771.56 292.066C771.904 305.146 736.646 305.344 726.969 306.118C732.953 317.691 736.917 327.763 741.248 338.605C744.607 347.015 761.175 393.746 764.873 397.903L766.085 397.865C775.084 389.537 776.999 356.403 786.766 346.811C800.08 333.737 805.939 358.37 808.782 366.666C813.129 379.349 818.947 398.002 828.097 407.882ZM1064.49 378.789C1069.07 394.266 1076.35 416.926 1083.18 431.528C1084.37 415.057 1085.04 399.119 1084.05 382.588C1082.94 381.05 1080.52 377.527 1079.36 376.29C1076.12 377.21 1075.78 376.705 1073.22 375.099C1070.13 376.762 1067.75 377.594 1064.49 378.789ZM415.67 396.496C426.536 402.151 438.188 408.475 449.216 413.624C445.935 399.851 448.352 394.019 447.057 381.527C440.892 381.806 431.552 382.436 427.893 376.138C426.817 366.24 441.705 364.439 448.559 363.097C448.709 359.122 450.859 341.799 448.499 339.965C433.703 348.976 420.661 353.626 404.626 359.77C394.98 363.466 382.138 367.613 373.962 373.584C381.138 380.209 405.681 391.155 415.67 396.496ZM1027.14 319.424C1021.67 331.157 1011.38 358.001 1008.83 370.291C1014.21 369.732 1019.58 369.241 1024.91 368.331C1031.01 367.578 1037.43 366.886 1043.47 365.944C1040.98 356.735 1033.43 325.484 1027.14 319.424ZM1105.29 320.93C1101.94 335.727 1101.43 344.575 1101.29 359.71C1108.33 357.652 1139.58 346.647 1146.63 343.065C1150.27 341.527 1165.59 335.43 1167.23 332.18C1163.25 324.917 1114.96 322.446 1105.29 320.93ZM365.11 320.887C362.719 334.914 361.376 345.232 361.734 359.769C375.552 355.186 395.606 347.907 409.032 341.978C412.967 340.301 425.929 335.281 428.095 332.489C427.874 331.335 427.567 330.165 426.285 329.673C409.984 323.414 380.824 323.791 365.11 320.887Z"/><path fill="#EAE9E9" transform="scale(2.16435 2.16435)" d="M1078.3 366.187L1080.08 368.09C1079.12 370.224 1079.37 373.797 1079.36 376.29C1076.12 377.21 1075.78 376.705 1073.22 375.099C1076.55 371.812 1077 370.656 1078.3 366.187Z"/><path transform="scale(2.16435 2.16435)" d="M1080.72 457.683C1081.24 461.47 1081.15 470.006 1082.45 472.132L1078.75 471.21C1079.07 466.149 1079.77 462.654 1080.72 457.683Z"/></svg>