<?xml version="1.0" encoding="utf-8" ?><svg xmlns="http://www.w3.org/2000/svg" xmlns:xlink="http://www.w3.org/1999/xlink" width="1704" height="974" viewBox="0 0 1704 974"><path transform="matrix(1.26786 0 0 1.26823 -0.000244141 0)" d="M0 0L1344 0L1344 768L0 768L0 0Z"/><path fill="white" transform="matrix(1.26786 0 0 1.26823 -0.000244141 0)" d="M726.942 306.349C736.732 321.29 761.066 394.83 764.815 398.396C771.173 399.328 779.955 356.231 782.901 351.874C796.078 332.386 804.644 350.163 807.42 362.6C809.19 370.532 822.705 405.839 827.991 407.224C830.683 404.926 830.999 390.668 831.874 386.344C839.369 349.295 849.538 311.45 869.044 278.769C871.903 273.981 880.876 264.085 887.099 268.489C886.034 272.817 889.337 270.5 890.047 275.131L887.84 276.129C876.775 295.791 873.49 300.916 865.476 322.5C869.76 321.845 872.953 321.792 877.261 321.666C877.655 313.006 878.561 306.742 889.481 308.575C895.045 309.509 895.269 313.7 897.998 317.816C907.139 321.902 947.346 314.438 960.557 316.075C962.843 316.358 965.667 316.976 967.064 318.986C967.932 320.236 968.231 321.976 967.841 323.446C964.26 336.953 903.78 330.441 895.903 336.498C892.102 339.42 892.015 355.424 891.576 360.293C905.654 361.065 921.713 358.167 935.897 357.352C939.881 357.124 950.437 354.428 953.257 357.465C963.58 368.585 948.156 371.843 939.628 372.231C926.06 372.847 912.195 373.78 898.649 374.866C896.773 375.025 892.727 376.164 891.578 377.889C888.936 383.924 889.697 398.064 890.741 403.882C896.194 409.942 932.683 432.09 939.043 430.339C944.232 423.277 944.129 406.74 947.999 397.817C949.994 393.216 955.183 392.063 957.366 388.19C957.838 387.353 957.855 384.846 958.107 383.769C960.561 373.285 981.263 378.08 988.655 373.212C994.632 369.275 1012.88 314.501 1015.32 306.15C1016.94 300.64 1017.91 294.858 1019 289.221C1021.64 286.39 1024.02 284.204 1027.96 283.585C1032.24 282.914 1035.74 285.753 1037.89 289.173C1045.3 300.961 1052.99 358.045 1059.66 362.432C1061.7 363.768 1067.01 361.92 1069.27 361.377C1071.61 362.376 1073.91 363.782 1076.13 365.05L1077.99 364.106L1078.8 364.66C1078.95 366.216 1078.88 367.457 1079.73 368.724L1084.16 363.8C1084.34 356.472 1086.57 328.312 1084.9 324.338C1074.25 317.204 1076.54 337.556 1074.01 338.531C1070.62 334.509 1075.66 327.233 1071.6 324.592C1069.44 326.895 1071.32 328.204 1069.17 330.522C1067.87 329.522 1067.51 328.086 1067.46 326.556C1067.33 322.333 1059.98 314.373 1063.47 310.87C1067.7 306.62 1080.47 306.131 1085.89 305.732C1093.2 299.412 1097.11 300.105 1104.08 306.396C1119.81 307.975 1183.94 312.944 1192.38 323.656C1194.17 325.914 1194.93 328.816 1194.48 331.66C1194.04 334.501 1191.96 338.056 1189.44 339.527C1174.8 348.049 1158.82 354.2 1143.12 360.439C1137.79 362.557 1117.75 368.977 1115.05 373.333L1115.16 375.294C1119.04 378.353 1129.49 383.217 1134.37 385.82C1154.62 396.508 1174.99 406.985 1195.47 417.25C1199.53 419.304 1211.07 423.876 1213.66 426.212C1223.83 435.394 1213.6 441.294 1205 441.873C1194.56 432.6 1116.21 391.767 1101.8 387.49C1099.48 404.055 1102.96 421.686 1100.99 438.092C1100.45 442.58 1093.71 447.035 1088.44 444.545C1087.63 445.723 1088.82 450.597 1089.04 452.584C1087.66 454.467 1085.89 457.017 1084.39 458.724C1083.89 461.729 1083.39 470.516 1082.81 472.086L1081.89 472.409C1080.72 468.392 1082.12 462.384 1080.87 460.085C1077.21 463.855 1079.13 490.088 1078.6 496.446C1078.46 498.177 1079.01 500.015 1077.72 500.088C1074 491.941 1078.19 471.336 1076.24 461.67C1075.21 456.566 1070.88 447.141 1069.02 441.638C1064.57 428.046 1060.02 414.483 1055.38 400.952C1053.8 396.315 1049.72 384.099 1047.65 380.029C1039.36 380.325 1006.31 383.292 1001.3 388.62C990.95 399.619 982.649 449.136 968.066 450.28C966.776 450.382 965.45 450.335 964.161 450.244L963.247 451.277C961.085 449.117 962.137 448.061 960.237 444.262C962.047 432.277 983.111 398.804 980.308 392.078C975.595 392.261 970.051 393.746 965.239 394.505C962.373 409.367 959.771 425.569 955.769 440.102C953.865 447.014 948.062 446.831 944.607 450.17C944.976 453.155 945.757 457.298 945.081 460.106L944.225 460.593L943.071 459.804C942.187 457.958 943.912 453.412 943.224 449.516L940.315 449.32C934.268 453.978 941.751 479.057 937.822 484.904C934.866 485.013 933.181 481.56 933.513 479.522C935.152 469.46 934.887 458.873 934.744 448.7C920.023 441.893 894.113 427.423 880.381 418.208C869.922 411.19 874.012 394.333 873.311 381.805C865.793 381.915 852.248 383.307 855.587 370.965C857.26 364.783 868.664 365.194 874.363 363.124C875.454 356.826 876.052 346.324 876.642 339.557C873.822 339.538 867.767 339.737 865.326 338.585C863.617 337.779 863.215 336.564 860.842 335.925C859.166 338.464 856.964 348.62 856.019 352.147C849.163 377.723 841.544 415.832 846.027 442.047C823.679 476.133 802.848 382.367 792.758 377.262C788.945 379.078 778.025 422.027 773.266 430.351C752.284 443.856 754.128 421.14 748.913 408.387C739.973 386.527 728.292 337.798 712.674 321.561C712.327 326.263 712.607 329.849 713.176 334.519L712.197 335.351L710.782 334.84C709.775 331.988 710.443 322.654 709.948 319.032C709.483 315.631 708.68 312.834 707.819 309.503C705.876 309.656 703.936 309.831 701.997 310.027C687.797 311.5 690.331 313.281 688.898 326.085C685.827 353.524 684.652 381.173 686.579 408.749C687.229 418.059 695.681 430.79 686.719 438.785C685.185 440.112 684.158 440.13 682.875 441.964C670.732 439.42 672.111 433.042 670.966 422.644C669.353 408.95 668.627 395.165 668.795 381.377C668.961 373.438 672.032 320.643 670.752 317.973C666.566 316.849 650.779 320.895 645.589 321.928C641.108 333.637 633.909 327.356 625.34 331.954C623.521 332.93 625.623 339.169 623.822 341.782L622.411 341.51C620.882 339.16 621.533 335.379 621.577 332.099C605.908 332.058 587.942 334.229 572.29 335.746C568.837 336.081 566.872 357.871 568.037 360.089C573.069 362.088 611.928 356.271 619.799 356.35C629.95 356.452 638.668 359.458 628.749 369.873C628.425 369.966 628.101 370.058 627.778 370.151C610.238 373.59 591.866 372.638 574.122 374.866C572.385 375.084 568.248 375.898 567.282 377.628C564.943 382.985 566.176 399.194 567.163 404.384C572.989 410.365 608.106 432.412 614.736 429.734C621.231 422.848 617.132 396.83 629.356 391.059C645.731 383.327 638.375 403.565 636.87 410.833C635.099 419.364 634.576 432.057 631.094 439.808C620.421 463.566 587.014 434.004 572.526 428.172C567.938 426.325 555.956 418.466 553.301 415.507C546.273 407.676 551.064 392.674 548.925 383.598C547.812 379.133 531.711 384.528 530.433 376.465C528.451 363.956 541.57 365.736 549.717 363.038C550.976 356.95 551.618 345.554 552.14 339.029C542.338 339.465 539.07 340.011 534.305 330.505C528.856 330.199 516.006 331.996 509.659 332.523C497.797 333.507 482.185 333.544 470.697 335.658C466.329 338.193 464.701 356.506 466.384 359.477C469.533 361.602 516.388 356.49 523.4 355.568C532.144 359.464 533.747 362.192 527.161 369.76C512.618 374.345 478.925 371.509 464.743 376.73C463.884 385.551 463.254 395.119 464.836 403.854C469.714 409.995 504.318 430.315 511.512 430.795C517.093 431.167 517.116 398.772 527.885 390.367C529.434 389.158 530.982 388.669 532.944 388.98C536.43 389.534 537.676 391.551 539.63 394.218C537.648 402.688 531.85 438.146 528.629 442.649C526.599 445.487 522.998 447.063 520.339 449.248C517.044 451.955 518.767 454.797 518.378 458.182C518.222 459.541 518.11 459.657 517.061 460.519L517.591 460.514C515.431 459.643 518.862 450.163 513.266 449.196C508.128 452.555 515.213 479.904 511.194 484.501C509.247 485.038 510.153 485.146 508.387 484.169C505.906 480.435 507.623 471.218 507.816 466.573C508.071 460.456 508.045 454.813 507.907 448.702C499.201 445.087 485.315 434.677 478.341 432.586C476.713 434.314 478.338 437.741 476.095 438.972C471.767 441.346 469.4 441.623 464.78 441.107C457.209 434.355 371.21 388.447 363.643 388.621C362.491 388.648 362.485 389.239 362.178 390.206C358.307 402.384 366.539 433.609 359.502 442.028C357.769 444.102 355.449 445.233 352.773 445.394C350.421 445.555 348.111 444.708 346.421 443.063C345.295 441.955 343.875 439.48 343.891 437.877C344.081 419.28 345.321 400.762 344.465 382.122C342.067 379.246 341.145 377.846 339.201 374.621C340.219 369.089 340.566 368.042 344.56 364.125C344.382 351.475 346.099 338.905 345.754 326.294C345.651 322.548 339.541 323.625 337.279 324.227C333.09 328.325 338.678 335.912 334.569 338.784C332.178 337.776 334.527 328.3 332.217 325.342C331.413 327.049 331.322 327.675 330.897 329.537L329.81 330.186C328.092 328.662 328.969 326.259 328.452 325.426C327.263 323.511 324.121 320.527 323.501 318.289C322.933 316.234 324.107 313.057 323.217 311.283C322.539 311.224 321.806 311.14 321.128 311.213C319.977 311.337 319.137 311.541 318.454 312.478C313.802 318.864 312.316 372.324 312.306 383.638C312.298 391.546 312.685 399.59 313.314 407.473C313.794 413.494 316.301 419.339 317.258 425.303C317.9 429.295 317.765 433.958 315.129 437.282C313.487 439.354 311.397 440.405 308.777 440.625C304.779 440.961 302.778 439.19 299.883 436.734C293.983 406.419 295.76 375.082 296.955 344.371C297.156 339.224 299.527 321.101 297.441 318.056C292.768 316.362 260.204 325.519 253.506 327.394C247.285 329.135 251.217 337.248 249.468 341.42L248.411 341.785C244.755 339.172 248.257 331.55 245.757 328.148L243.136 329.685C232.967 319.74 235.851 316.294 237.732 303.022C225.125 306.034 175.683 341.324 167.901 352.767C177.667 356.927 198.24 355.747 209.428 356.273C229.365 357.353 252.624 354.723 271.562 361.31C287.081 366.709 284.336 379.544 273.251 388.237C254.721 402.769 235.263 415.638 215.41 428.204C203.848 435.523 190.157 447.26 177.669 451.965C177.16 456.388 177.386 477.683 176.867 478.764L175.538 478.731C173.107 474.878 177.364 460.019 174.427 453.74C172.52 452.762 173.303 452.824 171.402 453.195C170.788 454.568 170.617 455.016 170.286 456.494L170.21 456.844C168.497 455.803 169.53 455.368 169.059 452.94C168.599 451.94 165.191 448.649 165.016 447.776C163.889 440.777 164.6 432.782 165.019 425.582C165.395 419.121 163.477 399.819 171.203 397.733C188.206 393.14 179.736 419.17 182.706 428.334C183.361 429.015 183.651 429.659 184.648 429.695C189.704 429.879 245.729 389.679 253.218 383.181C255.223 381.441 258.27 379.245 258.466 376.556C257.621 375.295 256.951 374.387 255.267 374.106C226.878 369.357 197.539 373.008 168.872 369.942C146.88 367.82 139.806 353.81 157.605 338.377C180.17 318.811 205.645 303.142 229.945 285.855C240.676 278.22 251.004 273.989 257.455 288.842C257.292 294.112 254.791 303.117 255.659 307.259C258.102 309.043 263.249 307.072 266.202 306.657C282.041 304.43 297.687 300.955 313.342 297.867C329.128 294.783 345.017 292.253 360.981 290.28C374.31 288.53 381.493 286.789 394.888 287.607C395.634 288.117 396.434 288.384 396.509 289.387C397.749 306.052 374.087 303.111 362.428 305.687C370.245 307.432 380.717 307.576 388.851 308.636C408.732 311.226 432.034 313.365 450.593 320.667C451.43 313.302 452.467 306.905 462.168 307.637C467.837 308.064 468.51 313.822 471.632 317.746C476.511 320.229 521.04 316.239 528.94 315.963C534.829 315.758 537.995 314.643 542.373 319.53C544.972 322.431 548.465 321.664 552.389 321.425C553.614 310.554 558.271 300.886 569.683 312.066C571.521 313.867 572.738 316.298 574.606 318.196C582.265 319.568 600.364 317.649 609.728 317.574C610.308 316.258 612.558 310.908 613.97 310.703C661.46 303.804 708.317 292.821 756.208 287.525C779.686 284.929 774.075 301.364 755.268 303.506C745.891 304.574 736.338 305.399 726.942 306.349Z"/><path transform="matrix(1.26786 0 0 1.26823 -0.000244141 0)" d="M1074.22 374.591C1075.18 376.72 1074.55 376.106 1076.5 377.016L1078.13 376.709L1079.1 375.275C1080.48 377.449 1082.61 380.255 1084.15 382.419C1085.21 395.203 1084.53 419.222 1083.17 432.087C1078.84 423.232 1066.66 388.247 1064.47 378.66C1068.67 377.307 1070.27 376.789 1074.22 374.591Z"/><path fill="#E9E8E6" transform="matrix(1.26786 0 0 1.26823 -0.000244141 0)" d="M1076.13 365.05L1077.99 364.106L1078.8 364.66C1078.95 366.216 1078.88 367.457 1079.73 368.724C1079.67 371.469 1079.59 372.58 1079.1 375.275L1078.13 376.709L1076.5 377.016C1074.55 376.106 1075.18 376.72 1074.22 374.591C1074.66 373.565 1076.48 371.199 1077.34 369.683C1077.44 366.847 1077.47 367.742 1076.13 365.05Z"/><path transform="matrix(1.26786 0 0 1.26823 -0.000244141 0)" d="M448.388 339.887L449.51 340.103C450.743 342.181 448.622 359.34 448.266 362.958C440.993 365.783 428.164 364.174 428.563 374.649C428.892 383.295 441.175 381.875 447.039 381.468C448.746 393.062 444.915 402.025 449.675 413.732C441.579 410.439 425.371 401.471 417.052 397.223C410.45 393.368 402.497 390.262 395.98 386.289C391.48 383.546 376.377 378.11 374.786 373.808C375.735 371.893 380.661 369.212 382.633 368.381C400.991 360.65 432.319 350.844 448.388 339.887Z"/><path transform="matrix(1.26786 0 0 1.26823 -0.000244141 0)" d="M1105.54 320.805C1116.31 323.114 1162.08 324.516 1167.66 331.534L1167.45 332.819C1163.45 336.01 1152.94 340.534 1148.05 342.649C1144.27 344.43 1136.41 347.108 1132.17 348.727C1122.51 352.415 1111.54 357.414 1101.57 359.632C1100.88 348.573 1101.86 331.195 1105.54 320.805Z"/><path transform="matrix(1.26786 0 0 1.26823 -0.000244141 0)" d="M365.461 321.002C384.636 323.458 406.642 323.958 425.527 329.107C427.463 329.635 428.38 330.572 428.699 332.519C425.906 335.18 414.171 339.89 409.996 341.675C405.597 343.789 397.304 346.643 392.424 348.558C382.346 352.512 372.205 356.806 361.81 359.705C361.646 349.1 361.96 330.915 365.461 321.002Z"/><path transform="matrix(1.26786 0 0 1.26823 -0.000244141 0)" d="M1027.3 319.291C1032.15 321.902 1041.6 358.717 1043.33 365.877C1039.19 366.908 1029.44 367.705 1024.25 368.543C1019.97 368.903 1012.61 370.957 1008.88 369.729C1008.72 365.301 1024.48 323.297 1027.3 319.291Z"/></svg>